# xmcd CD database file
#
# Track frame offsets:
#	150
#	28382
#	64199
#	87296
#	110379
#	129895
#	148495
#
# Disc length: 2318 seconds
#
# Revision: 1
# Processed by: cddbd v1.5.2PL0 Copyright (c) Steve Scherf et al.
# Submitted via: CDex 1.51
#
DISCID=64090c07
DTITLE=Fraet - For Another Day
DYEAR=2009
DGENRE=Jazz
TTITLE0=Just A Thought
TTITLE1=Here And There
TTITLE2=Did You See It
TTITLE3=Upon A Time
TTITLE4=Was It You
TTITLE5=Another Way To Answer
TTITLE6=Dips Of Green Elms
EXTD=YEAR: 2009
EXTT0=
EXTT1=
EXTT2=
EXTT3=
EXTT4=
EXTT5=
EXTT6=
PLAYORDER=
